<svg version="1.1"
	 id="spellcard" xmlns:dc="http://purl.org/dc/elements/1.1/" xmlns:cc="http://creativecommons.org/ns#" 
	 xmlns:rdf="http://www.w3.org/1999/02/22-rdf-syntax-ns#" xmlns:svg="http://www.w3.org/2000/svg" 
	 xmlns:sodipodi="http://sodipodi.sourceforge.net/DTD/sodipodi-0.dtd" xmlns:inkscape="http://www.inkscape.org/namespaces/inkscape" 
	 sodipodi:docname="spellcard.svg" inkscape:version="0.91 r13725"
	 xmlns='http://www.w3.org/2000/svg' xmlns:xlink="http://www.w3.org/1999/xlink" x="0px" y="0px" width="400px" height="560px"
	 viewBox="0 0 180 252" enable-background="new 0 0 180 252" xml:space="preserve"> 

<rect fill="#FFFFFF" width="400" height="560"/>

<g id="layer1" transform="translate(0,-737.3622)" inkscape:label="Layer 1" inkscape:groupmode="layer">
	<g id="g5346" transform="matrix(1.25,0,0,-1.25,105.89966,882.08012)">
	</g>
	<g id="g5254" transform="matrix(1.25,0,0,-1.25,97.04652,752.05585)">
		<path id="path5256" inkscape:connector-curvature="0" fill="#CCCCCC" d="M-15.527,2.351l9.182-0.687l-10.117-0.757l-10.114,0.757
			l5.863,0.438l-7.004,0.525l-22.395-1.675l7.935-0.593l-25.165-1.881l14.82-1.108l-7.821-0.585l9.643-0.721L-65.456-5.04
			l13.141-0.983l-18.206-1.36l25.02-1.872l-11.456-0.857l12.093-0.904l3.128,0.234l9.095-0.682l13.513,1.011l6.07-0.791
			l-15.746-1.177l21.616-1.616l4.728,0.354l-8.509,0.636l12.15,0.909l8.516-0.636l5.576,0.417l7.939-0.594l22.395,1.674
			l-7.934,0.593l24.755,1.85v0.061l-14.41,1.078l7.82,0.585l-9.644,0.722l14.757,1.103L47.807-4.301l14.619,1.092v0.536
			L35.011-0.622L43.341,0L28.133,1.137L14.621,0.127L8.542,0.919l14.911,1.113L11.505,2.926L3.177,2.304l-9.668,0.723L-15.527,2.351
			z M-49.103-11.979l8.16-0.61l8.161,0.61l-8.161,0.61L-49.103-11.979z M7.905-13.656l8.163-0.61l8.159,0.61l-8.159,0.61
			L7.905-13.656z"/>
	</g>
	<g id="g7528" transform="matrix(0.99997026,0,0,1.0084084,-1.9966719,-10.898013)">
		<g id="g5294" transform="matrix(1.25,0,0,-1.25,209.81378,809.74275)">
			<g id="g7550">
				
					<path id="path5264" inkscape:connector-curvature="0" fill="none" stroke="#6F6F6F" stroke-width="1.7188" stroke-miterlimit="10" d="
					M-158.128,24.693V4.438l19.174,2.506v20.255L-158.128,24.693z"/>
				<g id="g5266" transform="translate(-155.5733,-6.1167838)">
					
						<path id="path5268" inkscape:connector-curvature="0" fill="none" stroke="#6F6F6F" stroke-width="0.75" stroke-miterlimit="10" d="
						M-2.136,12.059l18.756,2.66 M-2.136,29.454l18.756,2.387"/>
				</g>
				<g id="g5270" transform="translate(-132.12842,20.454016)">
					<path id="path5272" inkscape:connector-curvature="0" fill="#CFD0D1" d="M-6.825,6.745l-13.082,1.935v-20.255l13.082-1.935
						V6.745z"/>
				</g>
				<g id="g5274" transform="translate(-132.12842,20.454016)">
					
						<path id="path5276" inkscape:connector-curvature="0" fill="none" stroke="#6F6F6F" stroke-width="1.375" stroke-miterlimit="10" d="
						M-6.825,6.745l-13.082,1.935v-20.255l13.082-1.935V6.745z"/>
				</g>
				<g id="g5290" transform="translate(-0.592296,-2.4457998)">
					
						<path id="path5292" inkscape:connector-curvature="0" fill="#FFFFFF" stroke="#6F6F6F" stroke-width="1.375" stroke-miterlimit="10" d="
						M-33.132,11.324c-33.355-6.077-84.955,6.077-118.31,0V31.58c33.355,6.077,84.955-6.077,118.31,0V11.324z"/>
				</g>
				
					<path id="path5296" inkscape:connector-curvature="0" fill="none" stroke="#6F6F6F" stroke-width="0.75" stroke-miterlimit="10" d="
					M-33.251,10.835c0,0-11.071-4.68-61.934-0.18c-35.924,3.18-53.862,0.393-56.636-0.093 M-33.725,27.555
					c0,0-10.734-4.342-61.595,0.16c-35.926,3.178-53.862,0.391-56.637-0.095"/>
			</g>
		</g>
	</g>
	<g id="g5298" transform="matrix(1.25,0,0,-1.25,71.189031,763.067)">
		<path id="path5300" inkscape:connector-curvature="0" fill="#FFFFFF" d="M-11.39,4.113c1.832-0.74,2.317-2.517,2.317-2.517
			C-10.612,1.639-11.065,2.827-11.39,4.113"/>
	</g>
	<g id="castingtimeGroup" transform="matrix(1.25,0,0,1.25,106.30252,838.9821)">
		<path id="castingtimePath" inkscape:connector-curvature="0" fill="#CCCCCC" d="M-17.008-16.259v9.67H-72.03l-2.107-1.69v-9.669
			h55.023L-17.008-16.259z"/>
	</g>
	<g id="rangeGroup" transform="matrix(1.25,0,0,1.25,203.28551,838.9821)">
		<path id="rangePath" inkscape:connector-curvature="0" fill="#CCCCCC" d="M-32.525-16.259v9.67h-54.938l-2.167-1.69v-9.669h54.936
			L-32.525-16.259z"/>
	</g>
	<g id="componentsGroup" transform="matrix(1.25,0,0,1.25,107.13125,870.16799)">
		<path id="componentsPath" inkscape:connector-curvature="0" fill="#CCCCCC" d="M-17.141-21.249v9.67h-55.021l-2.107-1.69v-9.669
			h55.023L-17.141-21.249z"/>
	</g>
	<g id="durationGroup" transform="matrix(1.25,0,0,1.25,202.88278,882.08012)">
		<path id="durationPath" inkscape:connector-curvature="0" fill="#CCCCCC" d="M-32.461-30.835v9.67h-54.938l-2.167-1.69v-9.669
			h54.936L-32.461-30.835z"/>
	</g>
	<g id="descriptionGroup" transform="matrix(1.25,0,0,1.25,203.80599,1016.327)">
		<path id="descriptionPath" inkscape:connector-curvature="0" fill="#CCCCCC" d="M-32.609-44.634h-61.517h-55.023l-2.105-1.691
			v-0.365v-9.303v-66.333v-1.689h61.501h55.021l2.107,1.689v9.67v46.439h0.016V-44.634z"/>
	</g>
	<g id="g5326" transform="matrix(1.25,0,0,-1.25,213.82028,1013.6151)">
		<path id="path5328" inkscape:connector-curvature="0" fill="#666666" d="M-34.211,44.201l-0.013,0.321l-0.336,0.021
			c-0.014,0.001-1.122,0.112-1.445,2.748V163.54l-0.315,0.094c-0.8,0.239-2.877,1.113-2.877,2.278v0.428h-122.711v-0.428
			c0-1.165-2.077-2.038-2.879-2.278l-0.314-0.094V47.291c-0.323-2.636-1.43-2.748-1.434-2.748h-0.359v-0.342
			c0-3.184,0.763-5.696,1.793-7.641v-3.863l0.314-0.093c0.802-0.238,2.879-1.11,2.879-2.277v-0.43h122.711v0.43
			c0,1.164,2.077,2.038,2.877,2.277l0.315,0.093v3.863C-34.975,38.505-34.211,41.017-34.211,44.201 M-35.795,44.573
			c0.309-0.383,0.628-0.56,0.864-0.642c-0.031-2.225-0.454-4.097-1.073-5.661v6.603C-35.938,44.766-35.87,44.665-35.795,44.573
			 M-164.203,158.942c0.118,0.234,0.319,0.62,0.605,1.097V47.611c0-2.326-0.205-4.962-0.605-7.859V158.942z M-164.203,37.352
			c0.639,3.855,0.963,7.301,0.963,10.259v113.004c1.188,1.829,3.3,4.375,6.085,4.869h113.207c2.782-0.493,4.897-3.041,6.084-4.872
			V47.611c0-2.959,0.323-6.405,0.964-10.259v-0.937c-0.712-1.23-1.528-2.202-2.287-2.939c-1.681-1.63-3.379-2.45-4.014-2.721h-114.7
			c-0.933,0.4-4.164,1.999-6.302,5.67V37.352L-164.203,37.352z M-36.9,39.752c-0.399,2.897-0.605,5.533-0.605,7.859v112.425
			c0.285-0.475,0.488-0.861,0.605-1.096V39.752z M-36.9,162.92v-2.497c-0.912,1.528-2.598,3.861-4.939,5.061h1.797
			C-39.695,164.052-37.691,163.204-36.9,162.92 M-161.061,165.484h1.797c-2.342-1.2-4.029-3.533-4.939-5.061v2.497
			C-163.412,163.204-161.407,164.052-161.061,165.484 M-166.173,43.93c0.236,0.082,0.555,0.259,0.864,0.642
			c0.074,0.092,0.143,0.194,0.209,0.3v-6.606C-165.728,39.846-166.143,41.719-166.173,43.93 M-164.203,33.317v1.776
			c0.588-0.845,1.209-1.552,1.802-2.123c1.067-1.03,2.126-1.744,2.953-2.215h-1.612C-161.407,32.184-163.412,33.034-164.203,33.317
			 M-40.042,30.755h-1.613c0.827,0.471,1.887,1.185,2.954,2.215c0.591,0.571,1.212,1.278,1.802,2.123v-1.776
			C-37.691,33.034-39.695,32.184-40.042,30.755"/>
	</g>
	<g id="g3402">
		<text transform="matrix(1 0 0 1 55.1464 984.9022)" fill="#B3B3B3" font-family="'MyriadPro-Regular'" font-size="5.8273">A</text>
		<text transform="matrix(1 0 0 1 58.4272 984.9022)" fill="#B3B3B3" font-family="'MyriadPro-Regular'" font-size="5.8273">T</text>
		<text transform="matrix(1 0 0 1 61.3232 984.9022)" fill="#B3B3B3" font-family="'MyriadPro-Regular'" font-size="5.8273">T</text>
		<text transform="matrix(1 0 0 1 63.934 984.9022)" fill="#B3B3B3" font-family="'MyriadPro-Regular'" font-size="5.8273">A</text>
		<text transform="matrix(1 0 0 1 67.477 984.9022)" fill="#B3B3B3" font-family="'MyriadPro-Regular'" font-size="5.8273">C</text>
		<text transform="matrix(1 0 0 1 70.8568 984.9022)" fill="#B3B3B3" font-family="'MyriadPro-Regular'" font-size="5.8273">K</text>
		<text transform="matrix(1 0 0 1 74.015 984.9022)" fill="#B3B3B3" font-family="'MyriadPro-Regular'" font-size="5.8273">S</text>
		<text transform="matrix(1 0 0 1 76.8881 984.9022)" fill="#B3B3B3" font-family="'MyriadPro-Regular'" font-size="5.8273"> </text>
		<text transform="matrix(1 0 0 1 78.1234 984.9022)" fill="#B3B3B3" font-family="'MyriadPro-Regular'" font-size="5.8273">&amp;</text>
		<text transform="matrix(1 0 0 1 81.6488 984.9022)" fill="#B3B3B3" font-family="'MyriadPro-Regular'" font-size="5.8273"> </text>
		<text transform="matrix(1 0 0 1 82.8842 984.9022)" fill="#B3B3B3" font-family="'MyriadPro-Regular'" font-size="5.8273">S</text>
		<text transform="matrix(1 0 0 1 85.7572 984.9022)" fill="#B3B3B3" font-family="'MyriadPro-Regular'" font-size="5.8273">P</text>
		<text transform="matrix(1 0 0 1 88.8573 984.9022)" fill="#B3B3B3" font-family="'MyriadPro-Regular'" font-size="5.8273">E</text>
		<text transform="matrix(1 0 0 1 91.7245 984.9022)" fill="#B3B3B3" font-family="'MyriadPro-Regular'" font-size="5.8273">L</text>
		<text transform="matrix(1 0 0 1 94.4755 984.9022)" fill="#B3B3B3" font-family="'MyriadPro-Regular'" font-size="5.8273">L</text>
		<text transform="matrix(1 0 0 1 97.2255 984.9022)" fill="#B3B3B3" font-family="'MyriadPro-Regular'" font-size="5.8273">C</text>
		<text transform="matrix(1 0 0 1 100.6054 984.9022)" fill="#B3B3B3" font-family="'MyriadPro-Regular'" font-size="5.8273">A</text>
		<text transform="matrix(1 0 0 1 104.1718 984.9022)" fill="#B3B3B3" font-family="'MyriadPro-Regular'" font-size="5.8273">S</text>
		<text transform="matrix(1 0 0 1 107.0448 984.9022)" fill="#B3B3B3" font-family="'MyriadPro-Regular'" font-size="5.8273">T</text>
		<text transform="matrix(1 0 0 1 109.9403 984.9022)" fill="#B3B3B3" font-family="'MyriadPro-Regular'" font-size="5.8273">I</text>
		<text transform="matrix(1 0 0 1 111.3339 984.9022)" fill="#B3B3B3" font-family="'MyriadPro-Regular'" font-size="5.8273">N</text>
		<text transform="matrix(1 0 0 1 115.1679 984.9022)" fill="#B3B3B3" font-family="'MyriadPro-Regular'" font-size="5.8273">G</text>
		<text transform="matrix(1 0 0 1 34.2401 813.6385)" fill="#B3B3B3" font-family="'MyriadPro-Regular'" font-size="5.1549">C</text>
		<text transform="matrix(1 0 0 1 37.2299 813.6385)" fill="#B3B3B3" font-family="'MyriadPro-Regular'" font-size="5.1549">A</text>
		<text transform="matrix(1 0 0 1 40.3847 813.6385)" fill="#B3B3B3" font-family="'MyriadPro-Regular'" font-size="5.1549">S</text>
		<text transform="matrix(1 0 0 1 42.9262 813.6385)" fill="#B3B3B3" font-family="'MyriadPro-Regular'" font-size="5.1549">T</text>
		<text transform="matrix(1 0 0 1 45.4882 813.6385)" fill="#B3B3B3" font-family="'MyriadPro-Regular'" font-size="5.1549">I</text>
		<text transform="matrix(1 0 0 1 46.7201 813.6385)" fill="#B3B3B3" font-family="'MyriadPro-Regular'" font-size="5.1549">N</text>
		<text transform="matrix(1 0 0 1 50.1122 813.6385)" fill="#B3B3B3" font-family="'MyriadPro-Regular'" font-size="5.1549">G</text>
		<text transform="matrix(1 0 0 1 53.4423 813.6385)" fill="#B3B3B3" font-family="'MyriadPro-Regular'" font-size="5.1549"> </text>
		<text transform="matrix(1 0 0 1 54.5351 813.6385)" fill="#B3B3B3" font-family="'MyriadPro-Regular'" font-size="5.1549">T</text>
		<text transform="matrix(1 0 0 1 57.0971 813.6385)" fill="#B3B3B3" font-family="'MyriadPro-Regular'" font-size="5.1549">I</text>
		<text transform="matrix(1 0 0 1 58.329 813.6385)" fill="#B3B3B3" font-family="'MyriadPro-Regular'" font-size="5.1549">M</text>
		<text transform="matrix(1 0 0 1 62.4735 813.6385)" fill="#B3B3B3" font-family="'MyriadPro-Regular'" font-size="5.1549">E</text>
		<text transform="matrix(1 0 0 1 122.6679 813.6385)" fill="#B3B3B3" font-family="'MyriadPro-Regular'" font-size="5.1549">R</text>
		<text transform="matrix(1 0 0 1 125.4413 813.6385)" fill="#B3B3B3" font-family="'MyriadPro-Regular'" font-size="5.1549">A</text>
		<text transform="matrix(1 0 0 1 128.5956 813.6385)" fill="#B3B3B3" font-family="'MyriadPro-Regular'" font-size="5.1549">N</text>
		<text transform="matrix(1 0 0 1 131.9872 813.6385)" fill="#B3B3B3" font-family="'MyriadPro-Regular'" font-size="5.1549">G</text>
		<text transform="matrix(1 0 0 1 135.3173 813.6385)" fill="#B3B3B3" font-family="'MyriadPro-Regular'" font-size="5.1549">E</text>
		<text transform="matrix(1 0 0 1 33.601 838.5165)" fill="#B3B3B3" font-family="'MyriadPro-Regular'" font-size="5.1549">C</text>
		<text transform="matrix(1 0 0 1 36.5907 838.5165)" fill="#B3B3B3" font-family="'MyriadPro-Regular'" font-size="5.1549">O</text>
		<text transform="matrix(1 0 0 1 40.1425 838.5165)" fill="#B3B3B3" font-family="'MyriadPro-Regular'" font-size="5.1549">M</text>
		<text transform="matrix(1 0 0 1 44.287 838.5165)" fill="#B3B3B3" font-family="'MyriadPro-Regular'" font-size="5.1549">P</text>
		<text transform="matrix(1 0 0 1 47.0297 838.5165)" fill="#B3B3B3" font-family="'MyriadPro-Regular'" font-size="5.1549">O</text>
		<text transform="matrix(1 0 0 1 50.5815 838.5165)" fill="#B3B3B3" font-family="'MyriadPro-Regular'" font-size="5.1549">N</text>
		<text transform="matrix(1 0 0 1 53.9731 838.5165)" fill="#B3B3B3" font-family="'MyriadPro-Regular'" font-size="5.1549">E</text>
		<text transform="matrix(1 0 0 1 56.5092 838.5165)" fill="#B3B3B3" font-family="'MyriadPro-Regular'" font-size="5.1549">N</text>
		<text transform="matrix(1 0 0 1 59.9013 838.5165)" fill="#B3B3B3" font-family="'MyriadPro-Regular'" font-size="5.1549">T</text>
		<text transform="matrix(1 0 0 1 62.4633 838.5165)" fill="#B3B3B3" font-family="'MyriadPro-Regular'" font-size="5.1549">S</text>
		<text transform="matrix(1 0 0 1 118.2187 838.5165)" fill="#B3B3B3" font-family="'MyriadPro-Regular'" font-size="5.1549">D</text>
		<text transform="matrix(1 0 0 1 121.6523 838.5165)" fill="#B3B3B3" font-family="'MyriadPro-Regular'" font-size="5.1549">U</text>
		<text transform="matrix(1 0 0 1 124.9872 838.5165)" fill="#B3B3B3" font-family="'MyriadPro-Regular'" font-size="5.1549">R</text>
		<text transform="matrix(1 0 0 1 127.7607 838.5165)" fill="#B3B3B3" font-family="'MyriadPro-Regular'" font-size="5.1549">A</text>
		<text transform="matrix(1 0 0 1 130.9159 838.5165)" fill="#B3B3B3" font-family="'MyriadPro-Regular'" font-size="5.1549">T</text>
		<text transform="matrix(1 0 0 1 133.4774 838.5165)" fill="#B3B3B3" font-family="'MyriadPro-Regular'" font-size="5.1549">I</text>
		<text transform="matrix(1 0 0 1 134.7099 838.5165)" fill="#B3B3B3" font-family="'MyriadPro-Regular'" font-size="5.1549">O</text>
		<text transform="matrix(1 0 0 1 138.2616 838.5165)" fill="#B3B3B3" font-family="'MyriadPro-Regular'" font-size="5.1549">N</text>
	</g>
	<g id="g6700" transform="translate(-2,-4)">
		<g id="g6663">
			<g id="g5302" transform="matrix(1.25,0,0,-1.25,205.10428,817.04562)">
				<path id="path5304" inkscape:connector-curvature="0" fill="#333333" d="M-32.497,12.109c-0.346,1.873-1.666,4.928-4.227,6.538
					c-2.116,1.329-3.964,1.041-3.973,1.701c-0.016,0.84,2.355,0.579,2.355,0.579c-2.556,1.465-6.225-0.328-6.75,0.511
					c-0.309,0.503,1.708,1.209,1.708,1.209c-3.12,0.116-6.802-1.493-8.279-2.952c3.721,1.249,8.963,0.531,11.37-1.525
					c-1.019,0.572-2.123,0.955-3.258,1.182c-4.223,0.849-8.925-0.408-11.755-1.586c-3.195-1.082-5.63-2.679-5.63-2.679
					c-2.109-1.226-6.004-2.368-8.645-1.25v-0.005c0,0,4.133-6.887,9.214-4.491c0.373,0.207,0.73,0.421,1.066,0.631
					c2.773,1.504,5.565,4.013,5.565,4.013c0.971,0.679,3.962,2.626,7.562,3.714c0.802,0.239,1.616,0.289,2.389,0.177
					c2.008-0.273,3.758-1.56,4.333-3.098C-37.902,15.047-33.974,13.749-32.497,12.109"/>
			</g>
			<g id="g5306" transform="matrix(1.25,0,0,-1.25,76.809656,770.9995)">
				<path id="path5308" inkscape:connector-curvature="0" fill="#333333" d="M-11.97,4.742c0,0-0.486,1.777-2.317,2.517
					C-13.961,5.973-13.509,4.785-11.97,4.742 M-17.868-0.012c-0.427,2.302-3.602,2.695-5.238,1.637
					c0.567,1.522,2.161,2.907,3.391,3.343c-0.702,0.27-1.529,0.502-2.419,0.697c1.048,0.799,3.625,1.405,4.931,1.291
					c-0.238,0.07-0.497,0.124-0.779,0.163l0.248,1.496c-0.145,1.253-1.279,2.69-2.629,3.554c-0.67,1.918-0.016,5.407,0.908,6.336
					c-0.465-5.018,6.621-8.118,7.999-11.818c-0.778,3.16-4.057,5.245-5.59,7.167c-0.487,1.265-0.017,3.354,0.572,4.062
					c-0.27-3.365,3.285-6.109,5.17-8.054c2.225-2.285,2.814-4.267,2.453-5.86c0.496-0.151,1.171-0.659,1.031-1.48
					c0.734,0.146,1.507,0.961,1.701,1.474c0.286-2.517-1.27-5.115-2.938-5.854c0,0,0.481,1.177-0.248,2.117
					c-0.713,0.923-2.814,0.999-3.528,0.973c0,0,0.914,1.263,0.584,1.927c-0.4,0.827-4.526,0.595-6.389-0.016
					c0.632,0.049,2.112-0.162,2.619-0.395c-0.302-0.422-1.112-2.209-0.582-2.771c0.447-0.481,1.081,0.233,1.161,0.325
					c-0.06-0.173-0.68-1.977-0.254-2.43c0.444-0.476,1.443-0.178,1.443-0.178c-0.666-1.534-3.089-2.534-4.765-2.48
					c0.605,0.168,1.627,1.199,1.794,1.837c-0.448-0.205-1.594-0.297-2.03-0.199C-18.71-2.944-17.582-1.589-17.868-0.012"/>
			</g>
			<g id="g5310" transform="matrix(1.25,0,0,-1.25,53.787156,763.69112)">
				<path id="path5312" inkscape:connector-curvature="0" fill="#333333" d="M-8.286,3.572c0.275,0.972-1.615,2.706-2.329,3.041
					c2.669,0.026,3.982-0.513,3.982-0.513c-0.665,1.042-0.843,2.62-0.405,3.851c1.345-3.527,6.524-4.251,7.722-7.184L0.436,1.272
					C-1.61,1.536-4.629,0.925-6.152-0.765c0.53-0.016,1.896-0.313,2.425-0.502C-6.034-1.613-9.21-3.644-10.16-4.621
					c0.28,1.318,0.686,2.425,0.4,3.229c-0.406,1.134-1.756,1.653-4.483,1.172C-12.358,1.557-8.572,2.578-8.286,3.572"/>
			</g>
			<g id="g5314" transform="matrix(1.25,0,0,-1.25,30.131156,777.63038)">
				<path id="path5316" inkscape:connector-curvature="0" fill="#333333" d="M-4.501,5.803l0.55-1.199
					C-4.69,4.48-5.522,1.557-5.522,1.557c-1.886,1.091-0.298,4.58-0.298,4.58L-4.501,5.803z"/>
			</g>
			<g id="g5318" transform="matrix(1.25,0,0,-1.25,23.699281,776.85337)">
				<path id="path5320" inkscape:connector-curvature="0" fill="#333333" d="M-3.472,5.678c0,0,0.983,0.707,1.502,0.837l0.859-0.761
					l-0.443-0.135c0,0-0.825-2.7-0.492-3.819l0.541-1.566c0,0-1.761,0.352-2.031,1.027C-3.537,1.26-4.104,4.301-3.472,5.678"/>
			</g>
			<g id="g5322" transform="matrix(1.25,0,0,-1.25,22.146531,778.643)">
				<path id="path5324" inkscape:connector-curvature="0" fill="#333333" d="M-3.224,5.965c0,0,0.114-3.467,0.47-3.776l1.307-0.556
					l0.038-1.182c0,0-2.334,0.74-2.528,1.631c-0.194,0.891-0.345,3.105-0.345,3.105S-3.893,5.765-3.224,5.965"/>
			</g>
		</g>
		<g id="g5366" transform="matrix(1.25,0,0,-1.25,140.47116,764.99)">
			<path id="path5368" inkscape:connector-curvature="0" fill="#333333" d="M-22.155,3.78c-0.019,0.139-0.009,0.282,0.031,0.411
				l0.182,0.565l0.228-0.546c0.066-0.16,0.207-0.277,0.373-0.382c-0.016,0.263,0.032,0.554,0.126,0.755
				c-0.02,0.425,0.274,0.742,0.624,0.742c0.598,0,0.759-0.726,0.481-1.244c0.129-0.195,0.325-0.375,0.499-0.532
				c0.063-0.055,0.121-0.109,0.173-0.158c0.016-0.017,0.025-0.031,0.042-0.047c0.259,0.353,0.451,0.844,0.451,1.215
				c0,0.77-0.502,1.486-1.543,1.541c-0.66,0.034-1.106-0.169-1.439-0.507c-0.15-0.154-0.484-0.542-0.42-1.244
				C-22.324,4.084-22.235,3.899-22.155,3.78 M-19.365,0.217c-0.238-0.403-0.737-0.924-1.245-0.924c-0.936,0-1.405,1.321-0.362,2.406
				c-0.059,0.018-0.116,0.022-0.136,0.022c-0.087,0-0.174-0.023-0.231-0.062L-21.8,1.263l0.13,0.645
				c0.009,0.021,0.016,0.044,0.026,0.065c-0.233-0.118-0.457-0.28-0.544-0.375l-0.417-0.455l0.042,0.642l0.028,0.142
				c0.022,0.1,0.048,0.225,0.031,0.266c-0.005,0.012-0.014,0.021-0.027,0.03c-0.194-0.15-0.722-0.615-0.783-1.307
				c0,0,0.102,0.146,0.192,0.179c0.059,0.022,0.11-0.006,0.054-0.179c-0.023-0.067-0.535-1.455,0.474-2.416
				c0,0-0.111,0.282-0.044,0.369c0.031,0.041,0.075,0.045,0.133-0.03c0.044-0.058,0.088-0.113,0.138-0.166v-0.001h0.002
				c0.083-0.095,0.175-0.185,0.273-0.262c0.302-0.211,0.712-0.381,1.178-0.381c1.241,0,1.9,0.85,2.267,1.57
				c-0.017,0.021-0.029,0.042-0.052,0.063C-18.886-0.173-19.158,0.051-19.365,0.217 M-16.543,2.678
				c-0.928-0.045-1.723-0.831-2.135-1.388c0.073-0.025,0.147-0.059,0.222-0.117c0.085-0.069,0.211-0.172,0.347-0.285
				C-18,1.131-17.752,1.624-17.372,2.06c0.347,0.398,0.953,0.436,1.27,0.193c0.204,0.186,0.909,0.359,1.28,0.254
				c-0.225,0.245-0.706,0.575-1.238,0.575c-0.438,0-0.684-0.215-0.748-0.118c-0.08,0.124,0.296,0.307,0.296,0.307
				c-0.517-0.023-0.893-0.629-1.048-0.555c-0.094,0.046,0.139,0.339,0.139,0.339c-0.472-0.273-0.869-0.856-0.951-1.209
				C-17.937,2.376-17.093,2.759-16.543,2.678 M2.55,0.138C2.518,0.189,2.498,0.233,2.498,0.41v1.162c0,0.175,0.016,0.209,0.05,0.261
				C2.582,1.89,2.646,1.976,2.646,1.976l0.022,0.029L2.637,2.021C2.633,2.024,2.553,2.065,2.463,2.076V2.074
				C2.439,2.076,0.629,2.076,0.629,2.076l0.092-0.058c0,0,0.27-0.164,0.391-0.24c0.119-0.074,0.18-0.159,0.18-0.414V0.731
				C1.155,0.687,1.014,0.667,0.848,0.667c-0.739,0-1.114,0.399-1.114,1.186c0,0.75,0.411,1.179,1.126,1.179
				c0.448,0,0.92-0.102,1.493-0.535L2.35,2.528L2.218,3.775L2.207,3.866L2.119,3.887l-0.088,0.02
				c-0.384,0.089-0.534,0.112-0.76,0.141C1.137,4.065,1.063,4.073,0.894,4.073c0,0-0.048,0.001-0.073,0.001
				c-1.347,0-2.327-0.943-2.327-2.243c0-1.279,0.985-2.208,2.339-2.208c0.238,0,0.695,0.043,0.982,0.104
				c0.055,0.011,0.086,0.02,0.128,0.03c0.009,0.002,0.019,0.004,0.028,0.006c0.162,0.038,0.327,0.08,0.493,0.13L2.676-0.04
				L2.652-0.006C2.65-0.005,2.588,0.08,2.55,0.138 M12.453,4.01h-2.441l0.092-0.056c0.002-0.002,0.234-0.145,0.378-0.239
				c0.13-0.086,0.18-0.145,0.18-0.425V2.247L8.861,4.011V4.01H7.428l0.084-0.055C7.514,3.953,7.734,3.81,7.86,3.718
				c0.125-0.091,0.184-0.184,0.184-0.463V0.416c0-0.278-0.05-0.337-0.175-0.414c-0.137-0.085-0.405-0.238-0.409-0.24L7.364-0.295
				H9.81L9.712-0.238C9.71-0.237,9.439-0.081,9.307,0.002C9.185,0.079,9.131,0.143,9.131,0.416v1.713l2.617-2.563V3.29
				c0,0.277,0.047,0.335,0.18,0.425c0.145,0.098,0.411,0.237,0.414,0.238L12.453,4.01L12.453,4.01z M-3.24,1.48l-0.388,1.059
				L-4.052,1.48H-3.24z M-7.246,2.782c0,0.221-0.144,0.368-0.559,0.37l-0.144-0.001V2.147c0.06-0.001,0.121-0.001,0.143-0.001
				C-7.532,2.146-7.246,2.207-7.246,2.782 M-1.255-0.009l0.366-0.286h-2.253c0,0,0.191,0.183,0.278,0.273
				c0.073,0.079,0.113,0.156,0.056,0.289c-0.012,0.032-0.037,0.103-0.07,0.191h-1.56c-0.03-0.086-0.055-0.155-0.073-0.191
				C-4.574,0.113-4.56,0.069-4.472-0.014c0.096-0.092,0.33-0.28,0.33-0.28l-2.362-0.001l-1.084,1.307l-0.003,0.002v0.003
				c-0.118,0.163-0.208,0.254-0.29,0.297c-0.01,0.005-0.03,0.013-0.067,0.021V0.417c0-0.27,0.051-0.32,0.179-0.417
				c0.13-0.1,0.513-0.295,0.513-0.295h-2.518c0,0,0.385,0.215,0.503,0.296c0.112,0.075,0.179,0.142,0.179,0.416v2.867
				c0,0.266-0.058,0.348-0.18,0.424c-0.125,0.078-0.381,0.238-0.381,0.238l-0.087,0.057c0,0,1.935,0.001,2.05,0.001
				c0.394-0.006,0.55-0.018,0.769-0.084c0.527-0.152,0.854-0.59,0.854-1.144c0-0.258-0.073-0.497-0.209-0.691
				c-0.102-0.152-0.24-0.278-0.396-0.366c0.452-0.602,0.806-1.05,1.026-1.291c0.015,0.025,1.304,3.139,1.304,3.139
				c0.004,0.023,0.007,0.043,0.007,0.059c0,0.022,0,0.048-0.065,0.106l-0.305,0.279h1.697c0,0,1.414-3.584,1.423-3.605h-0.002
				c0.04-0.09,0.052-0.107,0.092-0.169C-1.436,0.147-1.414,0.116-1.255-0.009 M6.343,1.862c0,0.705-0.447,1.16-1.138,1.16
				c-0.664,0-1.077-0.455-1.077-1.189c0-0.709,0.437-1.166,1.112-1.166C5.889,0.667,6.343,1.159,6.343,1.862 M7.582,1.862
				c0-1.271-1.012-2.23-2.355-2.23c-1.352,0-2.331,0.926-2.331,2.201c0,1.295,0.975,2.236,2.319,2.236
				C6.565,4.069,7.582,3.12,7.582,1.862 M14.232,2.464c-0.057,0.014-0.116,0.028-0.174,0.043L14.042,2.51
				c-0.41,0.097-0.678,0.173-0.678,0.35c0,0.058,0.017,0.105,0.053,0.139c0.072,0.073,0.222,0.114,0.423,0.114
				c0.033,0,0.067-0.002,0.102-0.005h0.013c0.008-0.001,0.013-0.002,0.021-0.002c0.37-0.032,0.813-0.194,1.266-0.495l-0.07,1.271
				l-0.084,0.028l-0.015,0.005c-0.007,0.002-0.055,0.018-0.195,0.049c-0.085,0.019-0.523,0.114-0.785,0.133
				c-0.085,0.005-0.17,0.01-0.249,0.01c-0.959,0-1.52-0.455-1.58-1.282c-0.03-0.414,0.173-0.817,0.516-1.027
				c0.307-0.186,0.766-0.326,1.1-0.43l0.076-0.023c0.209-0.065,0.451-0.195,0.418-0.445c-0.018-0.131-0.069-0.271-0.463-0.271
				c-0.057,0-0.118,0.002-0.188,0.009c-0.272,0.024-0.589,0.179-0.941,0.459c-0.013,0.013-0.025,0.021-0.034,0.027l-0.216,0.165
				l-0.223,0.17l0.088-1.612l0.082-0.027l0.017-0.006c0.003,0,0.05-0.015,0.195-0.048c0.145-0.033,0.62-0.115,0.864-0.132
				c0.077-0.006,0.156-0.009,0.237-0.009c1.048,0,1.738,0.521,1.759,1.328C15.571,1.728,15.128,2.237,14.232,2.464 M-10.761,1.856
				c0,0.705-0.364,1.109-0.998,1.109h-0.484V0.751h0.484C-11.125,0.751-10.761,1.155-10.761,1.856 M-9.51,1.867
				c0-0.501-0.163-0.993-0.448-1.349c-0.127-0.158-0.281-0.301-0.462-0.422c-0.427-0.285-0.821-0.391-1.452-0.391h-2.252
				l0.097,0.056c0,0.001,0.277,0.163,0.406,0.242c0.125,0.075,0.177,0.148,0.177,0.414v2.485c0,0.274-0.076,0.35-0.182,0.427
				c-0.556,0.404-0.603,0.869-0.603,0.889l-0.007,0.063l0.053-0.034c0.001-0.001,0.185-0.12,0.391-0.167
				c0.236-0.054,0.561-0.064,1.246-0.064h0.866V4.011c0.432-0.018,0.748-0.097,1.059-0.259C-9.925,3.387-9.51,2.683-9.51,1.867
				 M-41.568-0.044c0,0.001-0.063,0.087-0.1,0.145c-0.033,0.05-0.052,0.094-0.052,0.272v1.161c0,0.176,0.016,0.209,0.048,0.262
				c0.037,0.057,0.101,0.143,0.101,0.144l0.022,0.028l-0.032,0.016c-0.004,0.002-0.084,0.045-0.174,0.055V2.035
				c-0.023,0.002-1.834,0.002-1.834,0.002l0.093-0.057c0,0,0.27-0.166,0.39-0.24c0.118-0.075,0.179-0.159,0.179-0.414V0.693
				c-0.136-0.043-0.277-0.063-0.444-0.063c-0.738,0-1.114,0.398-1.114,1.185c0,0.75,0.412,1.18,1.127,1.18
				c0.447,0,0.919-0.104,1.493-0.536l-0.003,0.031L-42,3.735l-0.009,0.093l-0.09,0.021l-0.088,0.02
				c-0.384,0.089-0.534,0.112-0.761,0.141c-0.134,0.016-0.207,0.024-0.375,0.024c0,0-0.049,0.001-0.073,0.001
				c-1.348,0-2.327-0.943-2.327-2.242c0-1.279,0.983-2.208,2.339-2.208c0.237,0,0.694,0.044,0.981,0.104
				c0.055,0.012,0.086,0.02,0.129,0.029c0.009,0.002,0.018,0.004,0.028,0.007c0.162,0.039,0.326,0.08,0.493,0.131l0.211,0.066
				L-41.568-0.044z M-27.965,4.01h-2.44l0.091-0.056c0.003-0.002,0.237-0.145,0.379-0.24c0.13-0.086,0.179-0.145,0.179-0.424V2.247
				l-1.8,1.763h-1.434l0.086-0.056c0.002-0.001,0.222-0.144,0.348-0.236c0.125-0.091,0.184-0.184,0.184-0.463V0.416
				c0-0.278-0.049-0.337-0.175-0.414c-0.138-0.085-0.405-0.238-0.409-0.24l-0.097-0.057h2.448l-0.099,0.057
				c-0.002,0.002-0.273,0.157-0.405,0.24c-0.123,0.078-0.177,0.141-0.177,0.414v1.713l2.616-2.564V3.29
				c0,0.277,0.046,0.335,0.179,0.425c0.146,0.098,0.412,0.237,0.416,0.238L-27.965,4.01z M-31.555,4.011L-31.555,4.011
				L-31.555,4.011z M-45.418,4.01h-2.44l0.091-0.056c0.003-0.002,0.236-0.145,0.379-0.24c0.131-0.086,0.181-0.145,0.181-0.424V2.247
				l-1.802,1.764l0.001-0.001l-2.834,0.001c-0.084,0-0.173-0.052-0.178-0.054l-0.029-0.017l0.02-0.027
				c0.002,0,0.064-0.086,0.099-0.144c0.029-0.043,0.043-0.073,0.049-0.189c0,0-0.001-2.19-0.001-2.195V1.382V1.38l0.002-0.016
				c-0.008-0.463-0.213-0.698-0.649-0.698c-0.443,0-0.666,0.243-0.666,0.72l-0.002,2.195c0.004,0.115,0.021,0.146,0.048,0.189
				c0.037,0.058,0.098,0.144,0.1,0.144l0.02,0.027l-0.029,0.017c-0.005,0.002-0.095,0.054-0.179,0.054l-1.811-0.001l0.092-0.056
				c0.002-0.002,0.236-0.144,0.381-0.24c0.13-0.086,0.179-0.145,0.179-0.424V1.513c0-0.39,0.046-0.705,0.135-0.909
				c0.064-0.145,0.163-0.284,0.305-0.427c0.37-0.365,0.836-0.542,1.426-0.542c0.819,0,1.459,0.371,1.716,0.987
				c0.099,0.24,0.132,0.456,0.132,0.856V3.29c0,0.279,0.05,0.338,0.179,0.424c0.079,0.052,0.181,0.116,0.26,0.165
				c0.073-0.049,0.167-0.112,0.234-0.161c0.125-0.091,0.184-0.184,0.184-0.463V0.416c0-0.278-0.05-0.337-0.177-0.414
				c-0.136-0.085-0.404-0.238-0.405-0.24l-0.098-0.057h2.447l-0.098,0.057c-0.002,0.002-0.275,0.157-0.405,0.24
				c-0.123,0.078-0.176,0.141-0.176,0.414v1.713l2.617-2.564V3.29c0,0.277,0.047,0.335,0.18,0.425
				c0.144,0.098,0.411,0.237,0.414,0.238L-45.418,4.01L-45.418,4.01z M-38.715,0.751h-0.977v0.63c0,0,0.889,0,0.914,0
				c0.119,0.002,0.249,0.005,0.322-0.032c0.086-0.041,0.146-0.13,0.147-0.13l0.043-0.066l-0.002,1.38l-0.036-0.021
				c-0.001,0-0.059-0.037-0.108-0.058c-0.045-0.018-0.075-0.026-0.27-0.026h-1.012v0.537h1.014c0.26,0,0.316-0.022,0.465-0.128
				l0.252-0.191l-0.133,1.365h-3.446l0.091-0.056c0.002-0.002,0.236-0.145,0.377-0.24c0.13-0.086,0.181-0.146,0.181-0.424V0.417
				c0-0.283-0.044-0.333-0.176-0.415c-0.132-0.082-0.404-0.238-0.405-0.24l-0.098-0.057h3.573l0.32,1.437
				c0,0-0.289-0.207-0.37-0.259C-38.207,0.786-38.33,0.751-38.715,0.751 M-26.185,2.464c-0.058,0.014-0.116,0.028-0.173,0.043
				l-0.016,0.003c-0.41,0.097-0.677,0.173-0.677,0.35c0,0.058,0.016,0.105,0.053,0.138c0.072,0.074,0.223,0.114,0.422,0.114
				c0.034,0,0.069-0.002,0.103-0.005c0.004,0,0.008,0,0.013,0c0.006-0.001,0.015-0.002,0.021-0.002
				c0.37-0.032,0.813-0.194,1.266-0.495l-0.07,1.271l-0.084,0.028l-0.015,0.005c-0.007,0.002-0.055,0.019-0.197,0.05
				c-0.084,0.019-0.523,0.114-0.784,0.132c-0.085,0.006-0.17,0.011-0.249,0.011c-0.959,0-1.52-0.455-1.582-1.282
				c-0.03-0.414,0.173-0.817,0.519-1.027c0.308-0.186,0.764-0.327,1.099-0.43l0.077-0.023c0.208-0.065,0.45-0.195,0.417-0.445
				c-0.017-0.131-0.069-0.271-0.462-0.271c-0.056,0-0.119,0.002-0.188,0.009c-0.272,0.024-0.59,0.179-0.941,0.459
				c-0.013,0.011-0.024,0.021-0.033,0.027l-0.218,0.165l-0.224,0.17l0.09-1.612l0.084-0.027l0.014-0.006
				c0.003,0,0.05-0.015,0.197-0.049c0.145-0.032,0.62-0.114,0.863-0.131c0.078-0.006,0.159-0.009,0.237-0.009
				c1.048,0,1.737,0.521,1.759,1.328C-24.845,1.728-25.29,2.237-26.185,2.464 M-56.064,1.856c0,0.705-0.364,1.109-0.998,1.109
				h-0.484V0.751h0.484C-56.428,0.751-56.064,1.155-56.064,1.856 M-54.813,1.867c0-0.501-0.163-0.993-0.449-1.349
				c-0.127-0.158-0.281-0.301-0.462-0.422c-0.427-0.285-0.821-0.391-1.451-0.391h-2.252l0.096,0.056
				c0,0.001,0.278,0.163,0.409,0.242c0.124,0.075,0.176,0.148,0.176,0.414v2.485c0,0.274-0.075,0.35-0.182,0.427
				c-0.555,0.404-0.602,0.869-0.604,0.889l-0.005,0.063l0.051-0.034c0.002-0.001,0.186-0.12,0.391-0.167
				c0.238-0.054,0.563-0.064,1.248-0.064h0.865V4.011c0.432-0.018,0.748-0.097,1.059-0.259C-55.228,3.387-54.813,2.683-54.813,1.867
				 M-34.072,1.866c0,0.704-0.447,1.16-1.139,1.16c-0.663,0-1.075-0.456-1.075-1.189c0-0.708,0.434-1.166,1.109-1.166
				C-34.527,0.67-34.072,1.162-34.072,1.866 M-32.834,1.866c0-1.272-1.012-2.23-2.355-2.23c-1.35,0-2.331,0.925-2.331,2.201
				c0,1.295,0.976,2.236,2.32,2.236C-33.852,4.072-32.834,3.124-32.834,1.866 M-19.534,2.297l-0.041,0.133
				c-0.005,0.014-0.106,0.335-0.451,0.462l-0.188,0.07l0.055-0.193c0.047-0.166,0.134-0.472,0.486-0.472H-19.534z M-22.085,3.083
				c0.039,0.16-0.277,0.431-0.392,0.482c0.431,0.018,0.647-0.064,0.647-0.064c-0.113,0.166-0.149,0.421-0.085,0.623
				c0.236-0.566,1.08-0.657,1.288-1.127c-0.03,0.204-0.221,0.431-0.443,0.564c-0.12,0.308-0.03,0.876,0.115,1.032
				c-0.05-0.816,1.115-1.283,1.358-1.877c-0.143,0.509-0.686,0.83-0.945,1.134c-0.084,0.202-0.018,0.545,0.073,0.662
				c-0.027-0.547,0.564-0.973,0.88-1.28c0.37-0.359,0.477-0.677,0.427-0.938c0.081-0.022,0.193-0.102,0.173-0.234
				c0.12,0.027,0.241,0.163,0.269,0.247c0.059-0.405-0.18-0.836-0.447-0.964c0,0,0.072,0.194-0.05,0.341
				c-0.121,0.146-0.462,0.149-0.578,0.139c0,0,0.142,0.21,0.087,0.317c-0.07,0.131-0.738,0.073-1.037-0.034
				c0.102,0.011,0.343-0.016,0.427-0.051c-0.048-0.071-0.17-0.364-0.081-0.453c0.081-0.08,0.188,0.06,0.188,0.06
				s-0.105-0.322-0.03-0.397c0.074-0.073,0.234-0.021,0.234-0.021c-0.1-0.251-0.488-0.426-0.759-0.426
				c0.097,0.03,0.257,0.204,0.28,0.307c-0.07-0.036-0.256-0.056-0.328-0.043c0.087,0.035,0.264,0.263,0.209,0.516
				c-0.08,0.371-0.598,0.418-0.857,0.239c0.084,0.25,0.336,0.482,0.534,0.558c-0.116,0.041-0.252,0.075-0.397,0.101
				c0.166,0.136,0.581,0.246,0.792,0.234c-0.322,0.084-0.914-0.02-1.184-0.341c0.086,0,0.31-0.042,0.395-0.069
				c-0.372-0.067-0.877-0.413-1.026-0.576c0.04,0.215,0.1,0.396,0.048,0.527c-0.071,0.18-0.291,0.257-0.731,0.168
				C-22.735,2.737-22.127,2.922-22.085,3.083 M-15.107-0.489c0-0.614-0.612-1.095-1.305-0.996c0.176-0.165,0.604-0.277,0.832-0.173
				c-0.13-0.236-0.756-0.57-1.347-0.413c-0.554,0.148-0.797,0.677-0.811,1.013c-0.261-0.262-0.191-0.688-0.004-0.857
				c-0.216,0.056-0.541,0.281-0.597,0.683c-0.046,0.346,0.146,0.74-0.215,1.058c-0.216,0.189-0.542,0.461-0.756,0.628
				c-0.445,0.348-0.275,0.604-0.377,0.789c-0.077,0.142-0.263,0.221-0.375,0.351c-0.113,0.13-0.109,0.325-0.045,0.436
				c-0.02-0.156,0.092-0.272,0.24-0.321c0.164-0.055,0.303-0.01,0.442-0.091c0.169-0.098,0.091-0.361,0.212-0.454
				c0.11-0.082,0.383,0.027,0.617-0.161c0.234-0.188,0.759-0.625,0.984-0.811c0.407-0.334,0.827,0.047,0.688,0.43
				c0.414-0.245,0.459-0.929,0.115-1.168c0.324-0.073,0.909,0.072,0.909,0.541c0,0.286-0.266,0.489-0.455,0.521
				C-15.69,0.578-15.107,0.112-15.107-0.489"/>
		</g>
	</g>
	<g id="nameGroup" transform="matrix(1.25,0,0,1.25,117.48839,786.12781)">
		<path id="namePath" inkscape:connector-curvature="0" fill="#FFFFFF" d="M-18.799-7.802v9.67H-73.82l-2.107-1.691v-9.669h55.023
			L-18.799-7.802z"/>
	</g>
	<g id="lvlschoolGroup" transform="translate(0.35714286,-1.7857143)">
		<path id="lvlschoolPath" fill="#FFFFFF" d="M14.771,964.005h147.458c0.15,0,0.271,0.121,0.271,0.271v7.744
			c0,0.149-0.121,0.271-0.271,0.271H14.771c-0.149,0-0.271-0.121-0.271-0.271v-7.744C14.5,964.127,14.621,964.005,14.771,964.005z"
			/>
	</g>
</g>
</svg>
